<?xml version="1.0" encoding="UTF-8" standalone="no"?>
<!-- Created with Inkscape (http://www.inkscape.org/) -->

<svg
   width="187.35104mm"
   height="121.17786mm"
   viewBox="0 0 187.35104 121.17786"
   version="1.1"
   id="svg1"
   xmlns="http://www.w3.org/2000/svg"
   xmlns:svg="http://www.w3.org/2000/svg">
  <defs
     id="defs1">
    <marker
       style="overflow:visible"
       id="marker6"
       refX="0"
       refY="0"
       orient="auto-start-reverse"
       markerWidth="1"
       markerHeight="1"
       viewBox="0 0 1 1"
       preserveAspectRatio="xMidYMid">
      <path
         transform="scale(0.5)"
         style="fill:context-stroke;fill-rule:evenodd;stroke:context-stroke;stroke-width:1pt"
         d="M 5.77,0 -2.88,5 V -5 Z"
         id="path6" />
    </marker>
    <marker
       style="overflow:visible"
       id="Triangle"
       refX="0"
       refY="0"
       orient="auto-start-reverse"
       markerWidth="1"
       markerHeight="1"
       viewBox="0 0 1 1"
       preserveAspectRatio="xMidYMid">
      <path
         transform="scale(0.5)"
         style="fill:context-stroke;fill-rule:evenodd;stroke:context-stroke;stroke-width:1pt"
         d="M 5.77,0 -2.88,5 V -5 Z"
         id="path135" />
    </marker>
    <marker
       style="overflow:visible"
       id="marker6-3"
       refX="0"
       refY="0"
       orient="auto-start-reverse"
       markerWidth="1"
       markerHeight="1"
       viewBox="0 0 1 1"
       preserveAspectRatio="xMidYMid">
      <path
         transform="scale(0.5)"
         style="fill:context-stroke;fill-rule:evenodd;stroke:context-stroke;stroke-width:1pt"
         d="M 5.77,0 -2.88,5 V -5 Z"
         id="path6-6" />
    </marker>
    <marker
       style="overflow:visible"
       id="Triangle-1"
       refX="0"
       refY="0"
       orient="auto-start-reverse"
       markerWidth="1"
       markerHeight="1"
       viewBox="0 0 1 1"
       preserveAspectRatio="xMidYMid">
      <path
         transform="scale(0.5)"
         style="fill:context-stroke;fill-rule:evenodd;stroke:context-stroke;stroke-width:1pt"
         d="M 5.77,0 -2.88,5 V -5 Z"
         id="path135-8" />
    </marker>
  </defs>
  <g
     id="layer3"
     transform="translate(-20.967259,-79.576795)">
    <path
       d="m 21.386343,79.7343 -0.261578,31.21545 c -0.0015,0.1783 0.167589,0.21119 0.261578,0.32163 l 0.756564,0.88899 c 3.964395,5.96559 17.385733,9.00591 28.110133,9.0427 2.19759,-0.0137 4.383971,-0.19231 6.507443,-0.53138 4.274649,3.59917 11.915246,4.05647 18.122576,4.07546 7.496171,-0.0507 12.768104,-1.46194 16.959234,-6.43202 3.14797,0.53792 6.41482,0.82679 9.705357,0.8582 2.19403,-0.006 4.38245,-0.12721 6.5365,-0.36099 4.78327,2.70107 11.11325,4.22202 17.70982,4.25525 6.97381,-0.0362 13.63226,-1.7345 18.48234,-4.71414 3.4955,0.86559 7.25287,1.32481 11.05621,1.35127 8.74939,-0.004 17.47794,-3.24019 23.53407,-5.25585 6.84737,2.16411 10.81993,3.74128 16.67373,3.6666 5.20675,0.50144 11.54379,1.79675 12.62036,-7.74043 L 207.73957,79.7343 Z"
       style="opacity:0.99;fill:#a9c2ff;fill-opacity:1;stroke:#858585;stroke-width:0.315;stroke-dasharray:none"
       id="path17" />
  </g>
  <g
     id="layer1"
     transform="translate(-20.967259,-79.576795)">
    <path
       id="rect1"
       style="opacity:0.99;fill:#c92d00;stroke:#000000;stroke-width:0.739;stroke-dasharray:none"
       d="M 72.457494,104.02355 H 120.16734 V 87.812505 h 7.79905 l 14.58241,16.391065 v 16.98655 h 4.97619 v 79.19504 H 72.13633 v -96.04044 c 0,-0.17793 0.143239,-0.32117 0.321164,-0.32117 z" />
    <rect
       style="opacity:0.99;fill:#c92d00;fill-opacity:1;stroke:none;stroke-width:0.838999"
       id="rect2"
       width="64.776199"
       height="64.776199"
       x="75.089302"
       y="106.69753"
       ry="0.32116392" />
  </g>
  <g
     id="layer2"
     transform="translate(-20.967259,-79.576795)">
    <path
       style="opacity:0.99;fill:none;fill-opacity:1;stroke:#858585;stroke-width:1.04609;stroke-dasharray:none;stroke-opacity:1;marker-end:url(#Triangle)"
       d="m 182.52423,102.07306 c 14.74097,28.47775 0.98905,55.94837 0.92196,56.19204"
       id="path4" />
    <path
       style="opacity:0.99;fill:none;fill-opacity:1;stroke:#858585;stroke-width:1.04609;stroke-dasharray:none;stroke-opacity:1;marker-end:url(#Triangle-1)"
       d="m 125.33241,118.83251 c 1.204,-24.806162 -4.1883,-23.430419 -9.35968,-23.347499"
       id="path4-9" />
    <path
       style="opacity:0.99;fill:none;fill-opacity:1;stroke:#858585;stroke-width:0.941149;stroke-dasharray:none;stroke-opacity:1;marker-end:url(#marker6)"
       d="m 157.03212,179.94564 h -6.73859"
       id="path5" />
    <path
       style="opacity:0.99;fill:none;fill-opacity:1;stroke:#858585;stroke-width:0.932382;stroke-dasharray:none;stroke-opacity:1;marker-end:url(#marker6-3)"
       d="m 157.30653,192.47054 h -6.61362"
       id="path5-6" />
  </g>
</svg>
